<svg width="520" height="560" viewBox="0 0 520 560" fill="none" xmlns="http://www.w3.org/2000/svg">
  <rect width="520" height="560" rx="40" fill="url(#bg)"/>
  <rect x="0.75" y="0.75" width="518.5" height="558.5" rx="39.25" stroke="#F6EFE4" stroke-opacity="0.12" stroke-width="1.5"/>
  <rect x="28" y="28" width="464" height="504" rx="32" stroke="#FFF4E8" stroke-opacity="0.12" stroke-width="1.5"/>

  <g opacity="0.08">
    <path d="M52 96H468" stroke="#FFF5E8"/>
    <path d="M52 160H468" stroke="#FFF5E8"/>
    <path d="M52 224H468" stroke="#FFF5E8"/>
    <path d="M52 288H468" stroke="#FFF5E8"/>
    <path d="M52 352H468" stroke="#FFF5E8"/>
    <path d="M52 416H468" stroke="#FFF5E8"/>
    <path d="M96 88V452" stroke="#FFF5E8"/>
    <path d="M160 88V452" stroke="#FFF5E8"/>
    <path d="M224 88V452" stroke="#FFF5E8"/>
    <path d="M288 88V452" stroke="#FFF5E8"/>
    <path d="M352 88V452" stroke="#FFF5E8"/>
    <path d="M416 88V452" stroke="#FFF5E8"/>
  </g>

  <text x="52" y="58" fill="#F6EEDD" fill-opacity="0.82" font-family="Avenir Next, Segoe UI, sans-serif" font-size="14" font-weight="700" letter-spacing="3">PROTEIN APPETITE CONTROL</text>

  <g filter="url(#cardShadow)">
    <rect x="58" y="118" width="192" height="86" rx="24" fill="url(#card)"/>
    <rect x="58" y="238" width="192" height="96" rx="28" fill="url(#highlight)"/>
    <rect x="58" y="368" width="192" height="86" rx="24" fill="url(#card)"/>
  </g>

  <text x="154" y="149" fill="#F6EEDD" fill-opacity="0.72" font-family="Avenir Next, Segoe UI, sans-serif" font-size="12" font-weight="700" letter-spacing="2" text-anchor="middle">INPUT</text>
  <text x="154" y="181" fill="#FFF8F1" font-family="Avenir Next, Segoe UI, sans-serif" font-size="20" font-weight="700" text-anchor="middle">Protein need</text>

  <text x="154" y="271" fill="#FFF8F1" fill-opacity="0.84" font-family="Avenir Next, Segoe UI, sans-serif" font-size="12" font-weight="700" letter-spacing="2" text-anchor="middle">SETPOINT</text>
  <text x="154" y="301" fill="#FFFDF8" font-family="Avenir Next, Segoe UI, sans-serif" font-size="21" font-weight="700" text-anchor="middle">Neural state</text>
  <text x="154" y="326" fill="#FFF8F1" fill-opacity="0.88" font-family="Avenir Next, Segoe UI, sans-serif" font-size="13" font-weight="600" text-anchor="middle">Excitability</text>

  <text x="154" y="399" fill="#F6EEDD" fill-opacity="0.72" font-family="Avenir Next, Segoe UI, sans-serif" font-size="12" font-weight="700" letter-spacing="2" text-anchor="middle">OUTPUT</text>
  <text x="154" y="431" fill="#FFF8F1" font-family="Avenir Next, Segoe UI, sans-serif" font-size="20" font-weight="700" text-anchor="middle">Appetite</text>

  <path d="M250 162H300" stroke="#FFF4E8" stroke-opacity="0.42" stroke-width="3" stroke-linecap="round"/>
  <path d="M250 286H300" stroke="#FFF4E8" stroke-opacity="0.42" stroke-width="3" stroke-linecap="round"/>
  <path d="M250 412H300" stroke="#FFF4E8" stroke-opacity="0.42" stroke-width="3" stroke-linecap="round"/>
  <circle cx="300" cy="162" r="4.5" fill="#FFF3E5" fill-opacity="0.75"/>
  <circle cx="300" cy="286" r="4.5" fill="#FFF3E5" fill-opacity="0.75"/>
  <circle cx="300" cy="412" r="4.5" fill="#FFF3E5" fill-opacity="0.75"/>

  <path d="M318 196C342 212 356 236 370 276C383 313 397 334 430 344" stroke="url(#trace)" stroke-width="6" stroke-linecap="round"/>
  <path d="M316 375C342 369 365 360 386 344" stroke="url(#trace)" stroke-width="6" stroke-linecap="round"/>
  <circle cx="332" cy="209" r="7" fill="#F6B48D"/>
  <circle cx="360" cy="273" r="8" fill="#DE6D4B"/>
  <circle cx="430" cy="344" r="8" fill="#FFF4E7"/>

  <g opacity="0.17">
    <path d="M320 156C372 156 412 177 444 219" stroke="#FFF4E8" stroke-width="2"/>
    <path d="M320 424C376 419 416 391 448 344" stroke="#FFF4E8" stroke-width="2"/>
  </g>

  <g opacity="0.18">
    <path d="M312 458C348 448 384 446 446 460" stroke="#FFF4E8" stroke-width="2"/>
    <path d="M312 476C353 468 390 470 446 486" stroke="#FFF4E8" stroke-width="2"/>
  </g>

  <g filter="url(#cardShadow)">
    <rect x="286" y="84" width="164" height="74" rx="24" fill="url(#card)"/>
  </g>
  <text x="368" y="113" fill="#F6EEDD" fill-opacity="0.72" font-family="Avenir Next, Segoe UI, sans-serif" font-size="12" font-weight="700" letter-spacing="2" text-anchor="middle">MODEL SYSTEM</text>
  <g transform="translate(310 104)">
    <path d="M20 9C12 3 4 5 1 12C-1 15 0 18 2 20C5 22 10 22 14 19C17 18 19 15 21 12" fill="#FFF6E7" fill-opacity="0.84" stroke="#C7A14A" stroke-width="1.5" stroke-linecap="round" stroke-linejoin="round"/>
    <path d="M34 9C42 3 50 5 53 12C55 15 54 18 52 20C49 22 44 22 40 19C37 18 35 15 33 12" fill="#FFF6E7" fill-opacity="0.84" stroke="#C7A14A" stroke-width="1.5" stroke-linecap="round" stroke-linejoin="round"/>
    <ellipse cx="27" cy="16" rx="5.5" ry="6.5" fill="#17302D"/>
    <ellipse cx="27" cy="28" rx="5.8" ry="11" fill="#E9744D"/>
    <ellipse cx="27" cy="41" rx="4.2" ry="8.5" fill="#17302D"/>
    <path d="M24 9L21 3" stroke="#17302D" stroke-width="2" stroke-linecap="round"/>
    <path d="M30 9L33 3" stroke="#17302D" stroke-width="2" stroke-linecap="round"/>
  </g>
  <text x="398" y="139" fill="#FFF8F1" font-family="Avenir Next, Segoe UI, sans-serif" font-size="18" font-weight="700">Drosophila</text>

  <defs>
    <linearGradient id="bg" x1="34" y1="18" x2="446" y2="560" gradientUnits="userSpaceOnUse">
      <stop stop-color="#1A5258"/>
      <stop offset="1" stop-color="#44898E"/>
    </linearGradient>
    <linearGradient id="card" x1="58" y1="118" x2="450" y2="496" gradientUnits="userSpaceOnUse">
      <stop stop-color="#F7F1E6" stop-opacity="0.16"/>
      <stop offset="1" stop-color="#B4D5D6" stop-opacity="0.08"/>
    </linearGradient>
    <linearGradient id="highlight" x1="58" y1="238" x2="250" y2="334" gradientUnits="userSpaceOnUse">
      <stop stop-color="#F5A77D"/>
      <stop offset="1" stop-color="#DE6D4B"/>
    </linearGradient>
    <linearGradient id="trace" x1="318" y1="196" x2="430" y2="344" gradientUnits="userSpaceOnUse">
      <stop stop-color="#FFF3E6" stop-opacity="0.72"/>
      <stop offset="0.52" stop-color="#F5AF88"/>
      <stop offset="1" stop-color="#FFF3E6" stop-opacity="0.68"/>
    </linearGradient>
    <filter id="cardShadow" x="42" y="68" width="424" height="402" filterUnits="userSpaceOnUse" color-interpolation-filters="sRGB">
      <feDropShadow dx="0" dy="14" stdDeviation="18" flood-color="#0B2E31" flood-opacity="0.14"/>
    </filter>
  </defs>
</svg>
