<svg width="520" height="560" viewBox="0 0 520 560" fill="none" xmlns="http://www.w3.org/2000/svg">
  <rect width="520" height="560" rx="40" fill="url(#bg)"/>
  <rect x="0.75" y="0.75" width="518.5" height="558.5" rx="39.25" stroke="#F6EFE4" stroke-opacity="0.12" stroke-width="1.5"/>

  <g opacity="0.11">
    <path d="M0 56H520" stroke="#FFF5E8"/>
    <path d="M0 112H520" stroke="#FFF5E8"/>
    <path d="M0 168H520" stroke="#FFF5E8"/>
    <path d="M0 224H520" stroke="#FFF5E8"/>
    <path d="M0 280H520" stroke="#FFF5E8"/>
    <path d="M0 336H520" stroke="#FFF5E8"/>
    <path d="M0 392H520" stroke="#FFF5E8"/>
    <path d="M0 448H520" stroke="#FFF5E8"/>
    <path d="M0 504H520" stroke="#FFF5E8"/>
    <path d="M52 0V560" stroke="#FFF5E8"/>
    <path d="M104 0V560" stroke="#FFF5E8"/>
    <path d="M156 0V560" stroke="#FFF5E8"/>
    <path d="M208 0V560" stroke="#FFF5E8"/>
    <path d="M260 0V560" stroke="#FFF5E8"/>
    <path d="M312 0V560" stroke="#FFF5E8"/>
    <path d="M364 0V560" stroke="#FFF5E8"/>
    <path d="M416 0V560" stroke="#FFF5E8"/>
    <path d="M468 0V560" stroke="#FFF5E8"/>
  </g>

  <text x="44" y="48" fill="#F6EEDD" fill-opacity="0.8" font-family="Avenir Next, Segoe UI, sans-serif" font-size="14" font-weight="700" letter-spacing="3">PROTEIN APPETITE CONTROL</text>

  <g opacity="0.13">
    <circle cx="264" cy="252" r="116" stroke="#FFF5E8" stroke-width="2"/>
    <circle cx="264" cy="252" r="176" stroke="#FFF5E8" stroke-width="2"/>
  </g>

  <path d="M174 164C208 182 226 200 242 226" stroke="url(#flow)" stroke-width="5" stroke-linecap="round"/>
  <path d="M291 280C314 301 336 316 370 330" stroke="url(#flow)" stroke-width="5" stroke-linecap="round"/>

  <g filter="url(#cardShadow)">
    <rect x="44" y="118" width="184" height="92" rx="24" fill="url(#card)"/>
    <rect x="44.75" y="118.75" width="182.5" height="90.5" rx="23.25" stroke="#FFF7ED" stroke-opacity="0.18" stroke-width="1.5"/>
  </g>
  <text x="136" y="152" fill="#F6EEDD" fill-opacity="0.74" font-family="Avenir Next, Segoe UI, sans-serif" font-size="13" font-weight="700" letter-spacing="2" text-anchor="middle">INTERNAL NEED</text>
  <text x="136" y="186" fill="#FFF8F1" font-family="Avenir Next, Segoe UI, sans-serif" font-size="22" font-weight="700" text-anchor="middle">Protein need</text>

  <g filter="url(#softGlow)">
    <circle cx="264" cy="252" r="76" fill="url(#orb)"/>
  </g>
  <g filter="url(#orangeShadow)">
    <circle cx="264" cy="252" r="56" fill="url(#core)"/>
  </g>
  <text x="264" y="246" fill="#FFF8F1" font-family="Avenir Next, Segoe UI, sans-serif" font-size="14" font-weight="700" letter-spacing="2" text-anchor="middle">SETPOINT</text>
  <text x="264" y="274" fill="#FFF8F1" font-family="Avenir Next, Segoe UI, sans-serif" font-size="18" font-weight="700" text-anchor="middle">Membrane state</text>

  <g filter="url(#cardShadow)">
    <rect x="302" y="292" width="176" height="96" rx="24" fill="url(#card)"/>
    <rect x="302.75" y="292.75" width="174.5" height="94.5" rx="23.25" stroke="#FFF7ED" stroke-opacity="0.18" stroke-width="1.5"/>
  </g>
  <text x="390" y="328" fill="#F6EEDD" fill-opacity="0.74" font-family="Avenir Next, Segoe UI, sans-serif" font-size="13" font-weight="700" letter-spacing="2" text-anchor="middle">OUTPUT</text>
  <text x="390" y="362" fill="#FFF8F1" font-family="Avenir Next, Segoe UI, sans-serif" font-size="21" font-weight="700" text-anchor="middle">Protein appetite</text>

  <g filter="url(#cardShadow)">
    <rect x="72" y="402" width="220" height="90" rx="45" fill="url(#card)"/>
    <rect x="72.75" y="402.75" width="218.5" height="88.5" rx="44.25" stroke="#FFF7ED" stroke-opacity="0.18" stroke-width="1.5"/>
  </g>
  <g transform="translate(98 425)">
    <path d="M24 11C15 4 6 6 2 14C0 17 1 21 4 23C8 25 13 24 18 22C21 20 24 17 25 13" fill="#FFF6E7" fill-opacity="0.84" stroke="#C7A14A" stroke-width="1.7" stroke-linecap="round" stroke-linejoin="round"/>
    <path d="M38 11C47 4 56 6 60 14C62 17 61 21 58 23C54 25 49 24 44 22C41 20 38 17 37 13" fill="#FFF6E7" fill-opacity="0.84" stroke="#C7A14A" stroke-width="1.7" stroke-linecap="round" stroke-linejoin="round"/>
    <ellipse cx="31" cy="18" rx="6.4" ry="7.4" fill="#17302D"/>
    <ellipse cx="31" cy="31" rx="6.6" ry="12.6" fill="#E9744D"/>
    <ellipse cx="31" cy="46" rx="4.8" ry="9.5" fill="#17302D"/>
    <circle cx="26.8" cy="15.5" r="2.2" fill="#E9744D"/>
    <circle cx="35.2" cy="15.5" r="2.2" fill="#E9744D"/>
    <path d="M28 10.5L24.5 3.5" stroke="#17302D" stroke-width="2.2" stroke-linecap="round"/>
    <path d="M34 10.5L37.5 3.5" stroke="#17302D" stroke-width="2.2" stroke-linecap="round"/>
    <path d="M13 28L-1 25" stroke="#17302D" stroke-width="2.2" stroke-linecap="round"/>
    <path d="M13 36L-1 43" stroke="#17302D" stroke-width="2.2" stroke-linecap="round"/>
    <path d="M49 28L63 25" stroke="#17302D" stroke-width="2.2" stroke-linecap="round"/>
    <path d="M49 36L63 43" stroke="#17302D" stroke-width="2.2" stroke-linecap="round"/>
  </g>
  <text x="204" y="438" fill="#F6EEDD" fill-opacity="0.74" font-family="Avenir Next, Segoe UI, sans-serif" font-size="13" font-weight="700" letter-spacing="2" text-anchor="middle">MODEL SYSTEM</text>
  <text x="204" y="468" fill="#FFF8F1" font-family="Avenir Next, Segoe UI, sans-serif" font-size="20" font-weight="700" text-anchor="middle">Drosophila</text>

  <defs>
    <linearGradient id="bg" x1="30" y1="18" x2="448" y2="560" gradientUnits="userSpaceOnUse">
      <stop stop-color="#1A5258"/>
      <stop offset="1" stop-color="#42888D"/>
    </linearGradient>
    <linearGradient id="card" x1="42" y1="108" x2="478" y2="492" gradientUnits="userSpaceOnUse">
      <stop stop-color="#F7F1E6" stop-opacity="0.16"/>
      <stop offset="1" stop-color="#B4D5D6" stop-opacity="0.09"/>
    </linearGradient>
    <linearGradient id="flow" x1="174" y1="164" x2="370" y2="330" gradientUnits="userSpaceOnUse">
      <stop stop-color="#FFF4E7" stop-opacity="0.24"/>
      <stop offset="1" stop-color="#FFF4E7" stop-opacity="0.82"/>
    </linearGradient>
    <radialGradient id="orb" cx="0" cy="0" r="1" gradientUnits="userSpaceOnUse" gradientTransform="translate(264 252) rotate(90) scale(76)">
      <stop stop-color="#FBEBD8" stop-opacity="0.32"/>
      <stop offset="1" stop-color="#FBEBD8" stop-opacity="0"/>
    </radialGradient>
    <radialGradient id="core" cx="0" cy="0" r="1" gradientUnits="userSpaceOnUse" gradientTransform="translate(247 235) rotate(45) scale(72)">
      <stop stop-color="#FFF1D8"/>
      <stop offset="0.42" stop-color="#F5A57B"/>
      <stop offset="1" stop-color="#DE6D4B"/>
    </radialGradient>
    <filter id="cardShadow" x="30" y="104" width="462" height="402" filterUnits="userSpaceOnUse" color-interpolation-filters="sRGB">
      <feDropShadow dx="0" dy="14" stdDeviation="18" flood-color="#0B2E31" flood-opacity="0.14"/>
    </filter>
    <filter id="orangeShadow" x="190" y="178" width="148" height="148" filterUnits="userSpaceOnUse" color-interpolation-filters="sRGB">
      <feDropShadow dx="0" dy="18" stdDeviation="18" flood-color="#DE6D4B" flood-opacity="0.24"/>
    </filter>
    <filter id="softGlow" x="128" y="116" width="272" height="272" filterUnits="userSpaceOnUse" color-interpolation-filters="sRGB">
      <feGaussianBlur stdDeviation="20"/>
    </filter>
  </defs>
</svg>
