<svg width="420" height="200" viewBox="0 0 420 200" fill="none" xmlns="http://www.w3.org/2000/svg">
  <rect x="0.75" y="0.75" width="418.5" height="198.5" rx="27.25" fill="url(#panel)" stroke="#FFF4E8" stroke-opacity="0.14" stroke-width="1.5"/>

  <g opacity="0.1">
    <path d="M24 48H396" stroke="#FFF4E8"/>
    <path d="M24 86H396" stroke="#FFF4E8"/>
    <path d="M24 124H396" stroke="#FFF4E8"/>
    <path d="M24 162H396" stroke="#FFF4E8"/>
    <path d="M62 24V176" stroke="#FFF4E8"/>
    <path d="M124 24V176" stroke="#FFF4E8"/>
    <path d="M186 24V176" stroke="#FFF4E8"/>
    <path d="M248 24V176" stroke="#FFF4E8"/>
    <path d="M310 24V176" stroke="#FFF4E8"/>
    <path d="M372 24V176" stroke="#FFF4E8"/>
  </g>

  <path d="M68 128C102 128 126 117 154 95C183 73 212 61 248 71C277 79 305 103 338 103" stroke="url(#signal)" stroke-width="4.5" stroke-linecap="round"/>
  <circle cx="67" cy="128" r="7" fill="#F8EFE1"/>
  <circle cx="154" cy="95" r="7" fill="#F4B08A"/>
  <circle cx="248" cy="71" r="8" fill="#DE6D4B"/>
  <circle cx="338" cy="103" r="7" fill="#F8EFE1"/>

  <g filter="url(#chipShadow)">
    <rect x="30" y="34" width="104" height="36" rx="18" fill="#F7F1E7" fill-opacity="0.13"/>
    <rect x="158" y="22" width="116" height="40" rx="20" fill="#DE6D4B" fill-opacity="0.9"/>
    <rect x="290" y="128" width="102" height="36" rx="18" fill="#F7F1E7" fill-opacity="0.13"/>
  </g>

  <text x="50" y="56" fill="#FFF7EE" font-family="Avenir Next, Segoe UI, sans-serif" font-size="14" font-weight="700">Ion channels</text>
  <text x="181" y="47" fill="#FFF9F1" font-family="Avenir Next, Segoe UI, sans-serif" font-size="15" font-weight="700">Neural state</text>
  <text x="311" y="150" fill="#FFF7EE" font-family="Avenir Next, Segoe UI, sans-serif" font-size="14" font-weight="700">Behavior</text>

  <path d="M129 52H155" stroke="#FFF4E8" stroke-opacity="0.56" stroke-width="2.5" stroke-linecap="round"/>
  <path d="M274 143H286" stroke="#FFF4E8" stroke-opacity="0.56" stroke-width="2.5" stroke-linecap="round"/>
  <path d="M148 52L156 52L152 48" stroke="#FFF4E8" stroke-opacity="0.56" stroke-width="2.2" stroke-linecap="round" stroke-linejoin="round"/>
  <path d="M278 143L286 143L282 139" stroke="#FFF4E8" stroke-opacity="0.56" stroke-width="2.2" stroke-linecap="round" stroke-linejoin="round"/>

  <defs>
    <linearGradient id="panel" x1="18" y1="12" x2="370" y2="200" gradientUnits="userSpaceOnUse">
      <stop stop-color="#FFFFFF" stop-opacity="0.08"/>
      <stop offset="1" stop-color="#9CD0D4" stop-opacity="0.04"/>
    </linearGradient>
    <linearGradient id="signal" x1="68" y1="128" x2="338" y2="103" gradientUnits="userSpaceOnUse">
      <stop stop-color="#FFF3E6" stop-opacity="0.7"/>
      <stop offset="0.55" stop-color="#F5AF88"/>
      <stop offset="1" stop-color="#FFF3E6" stop-opacity="0.6"/>
    </linearGradient>
    <filter id="chipShadow" x="18" y="14" width="386" height="162" filterUnits="userSpaceOnUse" color-interpolation-filters="sRGB">
      <feDropShadow dx="0" dy="12" stdDeviation="14" flood-color="#082A2E" flood-opacity="0.14"/>
    </filter>
  </defs>
</svg>
